<?xml version="1.0" encoding="utf-8"?>
<!-- Generator: Adobe Illustrator 24.1.3, SVG Export Plug-In . SVG Version: 6.00 Build 0)  -->
<svg version="1.1" id="Layer_1" xmlns="http://www.w3.org/2000/svg" xmlns:xlink="http://www.w3.org/1999/xlink" x="0px" y="0px"
	 viewBox="0 0 100 100" style="enable-background:new 0 0 100 100;" xml:space="preserve">
<g>
	<g>
		<path d="M37.1,35.7c0.3-0.1,0.8-0.2,1.3-0.3c0.3,0,0.1,0.1,0.2,0.4c0,0.3,0.3,0.5,0,0.6c-0.1,0-0.2,0-0.2,0
			C40.2,36.7,44.3,37,50,37c5.7,0,9.8-0.3,11.7-0.6c0,0,0,0,0,0c-0.3,0-0.5-0.3-0.4-0.6c0-0.3,0.3-0.5,0.6-0.4
			c1.1,0.2,1.8,0.4,1.8,1c0,0.5-0.3,0.9-4.3,1.3C56.8,37.9,53.5,38,50,38s-6.8-0.1-9.3-0.3c-4-0.3-4.3-0.7-4.3-1.3
			C36.4,36,36.6,35.8,37.1,35.7z"/>
	</g>
	<g>
		<path d="M36.7,35.9c0.1,0,0.1,0,0.2,0c0.3,0,0.5,0.2,0.5,0.5l0,43.5c0,0.5,0.7,1.6,2.7,2.5c1.7,0.8,4.7,1.8,9.9,1.8
			c9.5,0,12.6-3.2,12.6-4.3l0-0.5l0-43c0-0.3,0.2-0.5,0.5-0.5c0.3,0,0.5,0.2,0.5,0.5l0,43.5c0,1.7-3.3,5.3-13.6,5.3
			c-5.4,0-8.6-1-10.4-1.9c-2.4-1.2-3.2-2.5-3.2-3.4l0-43.5C36.4,36.2,36.6,36,36.7,35.9z"/>
	</g>
	<g>
		<path d="M36.6,79.1c0.2-0.1,0.5,0,0.6,0.3c0.1,0.2,0,0.5-0.2,0.6l-1.7,0.9c-0.4,0.3-0.4,0.6-0.4,0.8c0,0.7,1.3,1.9,4.3,3
			c3.1,1.1,7.1,1.7,11.1,1.7c9.1,0,15.5-3,15.5-4.7c0-0.4-0.5-0.8-0.8-1.1c-0.1-0.1-0.3-0.2-0.4-0.3l-0.2-0.1c0,0-0.1,0-0.1-0.1
			c-0.3-0.2-0.7-0.3-1.1-0.4c-0.3-0.1-0.4-0.4-0.3-0.6c0.1-0.3,0.4-0.4,0.6-0.3c0.6,0.2,1.1,0.4,1.5,0.6l5.2,2.5
			c0.9,0.4,1.4,1,1.4,1.8c0.1,0.7-0.4,1.4-1.2,2L54.1,95.9c-1.5,1-3.9,1.1-5.6,0.3l-18.9-9.8c-0.9-0.4-1.4-1.1-1.4-1.8
			c0-0.7,0.5-1.3,1.3-1.8l5.2-2.8C35.3,79.7,36,79.4,36.6,79.1C36.6,79.1,36.6,79.1,36.6,79.1z M62.4,85.5c-3.1,1.2-7.5,2-12,2
			c-4.1,0-8.2-0.6-11.5-1.8c-3.2-1.1-5-2.5-5-3.9c0,0,0,0,0,0l-3.8,2.1c-0.5,0.3-0.8,0.6-0.8,0.9c0,0.3,0.3,0.6,0.8,0.9L49,95.4
			c1.3,0.6,3.4,0.5,4.6-0.3L70,84.9c0.5-0.3,0.7-0.7,0.7-1.1c0-0.4-0.3-0.7-0.9-0.9l-3-1.4c0,0.1,0,0.2,0,0.3
			C66.8,83.1,65.1,84.4,62.4,85.5z"/>
	</g>
	<g>
		<path d="M33.3,7.1c0.5-0.2,0.9-0.3,1.3-0.3l30.7,0c1,0,3,0.8,3,2c0,0.1-0.1,0.3-0.1,0.4c-0.1,0.1-0.2,0.1-0.4,0.1l-35.8,0
			c-0.1,0-0.3-0.1-0.4-0.1c-0.1-0.1-0.1-0.2-0.1-0.4C31.6,7.8,32.8,7.3,33.3,7.1z M67,8.3c-0.4-0.3-1.1-0.5-1.6-0.5l-30.7,0
			c-0.4,0-1.2,0.3-1.6,0.5L67,8.3z"/>
	</g>
	<g>
		<g>
			<g>
				<path d="M38.2,8.5c0.1,0,0.1,0,0.2,0c0.3,0,0.5,0.2,0.5,0.5l0,43.1c0,0,0.1,1.7,1.4,5c0.7,0.3,3.9,1.8,10.2,1.8
					c6,0,8.6-1.5,9.1-1.8c1.6-2.8,1.6-5,1.6-5l0-43c0-0.3,0.2-0.5,0.5-0.5c0.3,0,0.5,0.2,0.5,0.5l0,43c0,0.1,0,2.6-1.8,5.6
					c0,0.1-0.1,0.1-0.1,0.2c-0.1,0.1-2.9,2-9.8,2c-7.4,0-10.7-1.9-10.8-2c-0.1-0.1-0.2-0.1-0.2-0.2c-1.5-3.7-1.6-5.5-1.6-5.5l0-43.1
					C37.9,8.7,38,8.5,38.2,8.5z"/>
			</g>
		</g>
		<g>
			<path d="M39.8,56.9c0.1,0,0.2,0,0.3,0c0.3,0.1,0.4,0.3,0.3,0.6l-1.6,5.7c0.9,0.5,4.2,1.8,11.5,1.8c7.2,0,10.1-1.3,10.8-1.8
				l-1.6-5.8c-0.1-0.3,0.1-0.5,0.3-0.6c0.3-0.1,0.5,0.1,0.6,0.3l1.7,6.1c0,0.2,0,0.4-0.1,0.5c-0.1,0.1-2.5,2.2-11.7,2.2
				c-9.2,0-12.2-2.1-12.3-2.2c-0.2-0.1-0.2-0.3-0.2-0.5l1.7-6.1C39.5,57.1,39.7,57,39.8,56.9z"/>
		</g>
	</g>
</g>
</svg>
