<?xml version="1.0" encoding="utf-8"?>
<!-- Generator: Adobe Illustrator 24.1.3, SVG Export Plug-In . SVG Version: 6.00 Build 0)  -->
<svg version="1.1" id="Layer_1" xmlns="http://www.w3.org/2000/svg" xmlns:xlink="http://www.w3.org/1999/xlink" x="0px" y="0px"
	 viewBox="0 0 100 100" style="enable-background:new 0 0 100 100;" xml:space="preserve">
<g>
	<g>
		<path d="M55,32.4c-0.1,0.2-0.3,0.3-0.6,0.2c-0.3-0.1-0.4-0.3-0.3-0.6c0.1-0.5,0-0.7-0.1-0.8c-0.3-0.4-1.4-0.4-1.9-0.4
			C39.4,31,33.2,27.6,33,27.4c-0.1,0-0.1-0.1-0.2-0.2L21.7,8.7c-0.1-0.2-0.1-0.5,0.2-0.7c0.2-0.1,0.5-0.1,0.7,0.2l11,18.4
			c0.9,0.4,7,3.3,18.5,3.3c0.1,0,2-0.2,2.7,0.7C55,30.9,55.3,31.4,55,32.4C55,32.3,55,32.4,55,32.4z"/>
	</g>
	<g>
		<path d="M77.8,8.4c-0.2,0.3-0.6,1.1-9.5,1.8c0,0.1,0.1,0.4,0.3,0.8c0.2,0.5,0.2,1,0,1.4c-0.5,0.9-1.9,1-3.4,1l-0.5,0
			c-2,0.1-3.6-0.5-4.8-1.8c-0.6-0.6-1.9-0.9-2.9-0.9c-2.4,0.1-4.8,0.1-7.3,0.1C36.9,11,23.2,10.3,21.8,9c-0.2-0.2-0.2-0.4-0.2-0.5
			c0-0.1,0-0.2,0.1-0.3c0.9-1.8,15.6-3.2,28-3.3c11.5-0.1,28.1,1,28.2,3.3C77.9,8.2,77.8,8.3,77.8,8.4z M68.6,9.2
			c5.4-0.4,7.3-0.9,8-1.1c-2.1-0.9-12.8-2.3-26.9-2.2C35.5,5.9,24.8,7.5,22.8,8.4c1.9,0.7,11.6,1.6,26.9,1.5c2.4,0,4.8-0.1,7.1-0.1
			c0,0,0,0,0,0l0.4,0c0,0,0.1,0,0.1,0c0.9,0,2.4,0.3,3.3,1.2c1,1.1,2.3,1.6,4,1.5l0.5,0c1,0,2.4-0.1,2.6-0.5c0.1-0.1,0-0.4-0.1-0.6
			c-0.4-0.9-0.4-1.4-0.2-1.8c0.2-0.4,0.7-0.4,1-0.4C68.5,9.2,68.5,9.2,68.6,9.2C68.6,9.2,68.6,9.2,68.6,9.2z"/>
	</g>
	<g>
		<path d="M60.7,39.4c-0.1,0.2-0.3,0.3-0.6,0.2c-0.3-0.1-0.4-0.3-0.3-0.6l8-27.3c0.1-0.3,0.3-0.4,0.6-0.3c0.3,0.1,0.4,0.4,0.3,0.6
			L60.7,39.4C60.7,39.4,60.7,39.4,60.7,39.4z"/>
	</g>
	<g>
		<path d="M63.3,45.8c-0.8,1.4-2.3,2.4-4,2.4c-2.1,0-4-1.5-4.5-3.6c-0.1-0.3,0.1-0.5,0.4-0.6c0.3-0.1,0.5,0.1,0.6,0.4
			c0.4,1.6,1.9,2.8,3.5,2.8c2,0,3.6-1.6,3.6-3.6c0-1-0.4-1.9-1.1-2.5c-0.7-0.7-1.6-1-2.6-1c-1.7,0-3.1,1.2-3.5,2.8
			c-0.1,0.3-0.3,0.4-0.6,0.4c-0.3-0.1-0.4-0.3-0.4-0.6c0.5-2.1,2.3-3.6,4.5-3.6c1.2,0,2.4,0.5,3.3,1.3c0.9,0.9,1.4,2,1.4,3.2
			C63.9,44.4,63.7,45.2,63.3,45.8z"/>
	</g>
	<g>
		<path d="M36.7,40.8c-0.1,0.2-0.2,0.3-0.4,0.3c-0.3,0-0.5-0.2-0.5-0.5c0-3.1-0.8-5.5-2.4-7l-0.1-0.1c-0.8-0.8-2.3-2.3-2.3-4.2
			c0-2,1.4-3.2,1.5-3.3c0.2-0.2,0.5-0.1,0.7,0.1c0.2,0.2,0.2,0.5-0.1,0.7l0,0c0,0-1.1,1-1.1,2.5c0,1.5,1.3,2.8,2,3.5l0.1,0.1
			c1.7,1.7,2.6,4.3,2.6,7.7C36.8,40.7,36.8,40.8,36.7,40.8z"/>
	</g>
	<g>
		<path d="M54.4,58.7c-0.1,0.2-0.2,0.3-0.3,0.4c-0.6,0.7-1.4,0.6-1.5,0.6c-14.1,0.1-18.3-2.2-18.8-2.5c-1.3-0.5-2.1-1.4-2.4-2.5
			c-0.4-1.4,0.2-3.2,1.5-4.9c2.1-2.8,2.9-6.7,2.9-6.8c0.1-0.3,0.3-0.4,0.6-0.4c0.3,0.1,0.4,0.3,0.4,0.6c0,0.2-0.8,4.2-3.1,7.2
			c-1.2,1.5-1.6,3-1.3,4.1c0.2,0.8,0.8,1.5,1.8,1.9c0,0,0.1,0,0.1,0c0,0,3.9,2.4,18.3,2.3c0.1,0,0.5,0,0.8-0.3c0.3-0.4,0.4-1,0.3-2
			c-0.2-1.2-0.5-2.6-0.8-4.2c-0.5-2.4-1.1-5.2-1.2-7.3c0-0.3,0.2-0.5,0.5-0.5c0.3,0,0.5,0.2,0.5,0.5c0.1,2.1,0.7,4.8,1.2,7.2
			c0.3,1.6,0.7,3.1,0.8,4.3C54.8,57.3,54.7,58.1,54.4,58.7z"/>
	</g>
	<g>
		<path d="M52.6,42.9c-0.1,0.2-0.3,0.3-0.4,0.3c-0.3,0-0.5-0.2-0.5-0.5c0-0.1,0.1-2.4,0.4-3.5l8-27.3c0.1-0.3,0.4-0.4,0.6-0.3
			c0.3,0.1,0.4,0.4,0.3,0.6l-8,27.3c-0.3,1-0.4,3.2-0.4,3.3C52.6,42.7,52.6,42.8,52.6,42.9z"/>
	</g>
	<g>
		<path d="M56.5,44.3c-0.3,0.5-0.9,0.7-1.4,0.8c-0.7,0-15.8,0.2-20.4-2.3c-0.2-0.1-0.3-0.3-0.3-0.4l0-2.1c0-0.1,0-0.1,0-0.2
			c0,0,0.3-0.9,1.4-1.3c0.3-0.1,0.5,0.1,0.6,0.3c0.1,0.3-0.1,0.5-0.3,0.6C36.1,39.9,36,40,35.9,40c0.1,0.1,0.2,0.2,0.2,0.4
			c0.1,0.2,1.7,2,16.8,1.9l2.4,0c0.6,0,1.4,0.4,1.4,1.4C56.7,43.9,56.6,44.1,56.5,44.3z M35.5,42.1c4.6,2.2,19.5,2,19.6,2
			c0.1,0,0.5,0,0.5-0.4c0-0.3-0.3-0.4-0.4-0.4l-2.4,0.1c-12.2,0.1-16.2-1-17.4-2.1L35.5,42.1z"/>
	</g>
	<g>
		<path d="M77.8,8.3C77.8,8.3,77.8,8.4,77.8,8.3L66.6,27c-0.1,0.1-0.1,0.2-0.2,0.2c-1,0.4-2.5,0.5-2.6,0.5c-0.3,0-0.5-0.2-0.5-0.5
			c0-0.3,0.2-0.5,0.5-0.5c0,0,1.3-0.1,2.2-0.4l11-18.5c0.1-0.2,0.4-0.3,0.7-0.2C77.8,7.8,77.9,8.1,77.8,8.3z"/>
	</g>
	<g>
		<path d="M65,40.6c-0.4,0.7-1.5,1.5-1.8,1.7c-0.2,0.2-0.5,0.1-0.7-0.1c-0.2-0.2-0.1-0.5,0.1-0.7c0.7-0.5,1.5-1.2,1.5-1.4
			c0-0.1,0-0.1,0-0.1c-0.2,0-0.4-0.2-0.4-0.4c0-1.6,1.8-5.7,2.9-7.2c1-1.4,1.6-2.4,1.6-4.2c0-1.6-1.5-2.4-1.5-2.4
			c-0.2-0.1-0.3-0.4-0.2-0.7c0,0,0,0,0,0c0.1-0.2,0.4-0.3,0.7-0.2c0.1,0,2,1.1,2,3.3c0,2.1-0.7,3.2-1.8,4.8c-1,1.3-2.5,4.8-2.7,6.3
			c0.1,0.1,0.1,0.1,0.2,0.2c0.1,0.2,0.2,0.5,0.1,0.9C65.1,40.4,65.1,40.5,65,40.6z"/>
	</g>
	<g>
		<path d="M65.8,42.3C65.8,42.3,65.8,42.3,65.8,42.3c0,0.1-0.8,1.3-2.2,2.1c-0.2,0.1-0.5,0.1-0.7-0.2s-0.1-0.5,0.2-0.7
			c1-0.6,1.6-1.3,1.8-1.6l0-0.9c0-0.7-0.2-0.9-0.2-0.9c-0.3,0.1-0.6,0-0.7-0.3c-0.1-0.3,0-0.5,0.3-0.6c0.2-0.1,0.6-0.1,1,0.1
			c0.4,0.3,0.6,0.9,0.6,1.7l0,1.1C65.9,42.1,65.8,42.2,65.8,42.3z"/>
	</g>
	<g>
		<path d="M69.1,54.3c-0.1,0.2-0.4,0.3-0.6,0.2c-0.3-0.1-0.4-0.4-0.3-0.6c0.4-0.9,0.3-1.9-1.3-4.3c-1.7-2.5-2.9-6.1-3-6.2
			c-0.1-0.3,0.1-0.5,0.3-0.6c0.3-0.1,0.5,0.1,0.6,0.3c0,0,1.2,3.6,2.8,6C69.3,51.3,69.7,52.8,69.1,54.3
			C69.1,54.3,69.1,54.3,69.1,54.3z"/>
	</g>
	<g>
		<path d="M67.5,55.9C67.5,55.9,67.4,56,67.5,55.9c-0.6,0.8-2.3,1.5-3.9,1.8c-0.7,0.1-1.2-0.1-1.4-0.3c-0.7-0.6-0.6-1.7-0.6-1.8
			l0-3.5c0-0.3,0.2-0.5,0.5-0.5c0.3,0,0.5,0.2,0.5,0.5l0,3.5c0,0.2,0,0.8,0.3,1.1c0,0,0.2,0.2,0.6,0.1c1.6-0.3,3-1,3.3-1.4
			c0.2-0.2,0.5-0.3,0.7-0.1C67.5,55.4,67.6,55.7,67.5,55.9z"/>
	</g>
	<g>
		<path d="M77.3,85.7c-0.3,0.5-0.6,1-1,1.5c-4.4,5.5-15.6,7.6-23.9,7.6c-10,0.1-22.8-1.1-27.1-6.8c-4.8-6.3-1.4-12.1-1.3-12.2
			l9.6-19.2c0.1-0.2,0.4-0.3,0.7-0.2s0.3,0.4,0.2,0.7l-9.6,19.2c-0.1,0.2-3.1,5.3,1.3,11.1c4.3,5.7,18.3,6.5,26.3,6.4
			c8,0,18.9-2,23.1-7.2c3.8-4.8,0.8-10.3-0.6-12.9c-0.2-0.4-0.4-0.7-0.5-1c-0.8-1.8-4.8-9.4-5.6-11c-0.1-0.2,0-0.5,0.2-0.7
			c0.2-0.1,0.5,0,0.7,0.2c0.8,1.5,4.7,9.2,5.6,11c0.1,0.2,0.3,0.5,0.5,0.9C77.2,75.8,79.9,80.8,77.3,85.7z"/>
	</g>
	<g>
		<path d="M60.6,50.2c0,0.1-0.1,0.1-0.1,0.1c-1.2,1.1-3.5,0.4-3.6,0.4c-0.2,0-0.3-0.2-0.3-0.3l0,0c0,0-0.3-0.4-1.6-1.7
			c-1.8-1.7-0.9-4.2-0.8-4.3c0.1-0.2,0.4-0.4,0.6-0.3c0.3,0.1,0.4,0.4,0.3,0.6c0,0.1-0.8,2,0.6,3.3c0.6,0.6,1.4,1.3,1.7,1.8
			c0.4,0.1,1,0.2,1.6,0.1c-0.9-0.5-2-1.4-2.9-3c-0.1-0.2,0-0.5,0.2-0.7c0.2-0.1,0.5,0,0.7,0.2c1.2,2.3,3.3,3,3.4,3
			c0.2,0.1,0.3,0.2,0.3,0.4C60.7,49.9,60.7,50.1,60.6,50.2z"/>
	</g>
	<g>
		<path d="M63.4,49.4C63.4,49.4,63.4,49.4,63.4,49.4c-1.1,1.5-2.7,1.3-3.4,1c-0.3-0.1-0.4-0.4-0.3-0.6c0.1-0.3,0.4-0.4,0.6-0.3
			c0.1,0,1.2,0.5,2.1-0.5c-0.1-0.2-0.4-0.7-1.6-1.2c-0.3-0.1-0.4-0.4-0.3-0.7c0.1-0.2,0.4-0.4,0.7-0.3c2.3,1,2.3,2.1,2.3,2.3
			C63.5,49.3,63.5,49.3,63.4,49.4z"/>
	</g>
	<g>
		<path d="M69,77.9C69,77.9,69,77.9,69,77.9l-1.2,1.7c-0.1,0.1-0.2,0.2-0.4,0.2c-0.1,0-0.3,0-0.4-0.1l-1.4-1.4
			c-4.4-5-8.6-15.7-9.6-19.9c-1-4.1,0.5-8.1,0.5-8.3c0.1-0.3,0.4-0.4,0.6-0.3c0.3,0.1,0.4,0.4,0.3,0.6c0,0-1.4,3.9-0.5,7.7
			c1,4.2,5.3,14.8,9.4,19.4l1,0.9l0.6-0.8c-1.1-1.3-5.4-6.5-7.6-12.4c-2.3-6.3-4-12.3-0.8-15.5c0.2-0.2,0.5-0.2,0.7,0
			c0.2,0.2,0.2,0.5,0,0.7c-2.9,2.9-1.2,8.5,1,14.5c2.3,6.5,7.6,12.3,7.6,12.3C69.1,77.4,69.1,77.7,69,77.9z"/>
	</g>
	<g>
		<path d="M64.6,50.6c-1.3,2.4-5.7,2-5.9,2c-0.3,0-0.5-0.3-0.4-0.5c0-0.3,0.3-0.5,0.5-0.4c0,0,4.7,0.4,5.2-2
			c0.2-1.1,0.1-1.9-0.3-2.3c-0.3-0.4-0.9-0.5-1.3-0.5c-0.3,0-0.5-0.2-0.5-0.5c0-0.3,0.2-0.5,0.5-0.5c0.9,0,1.6,0.3,2,0.8
			c0.6,0.7,0.8,1.7,0.5,3.1C64.8,50.1,64.7,50.4,64.6,50.6z"/>
	</g>
	<g>
		<path d="M64.3,47.1c-0.1,0.2-0.3,0.3-0.6,0.2c-0.3-0.1-0.4-0.4-0.3-0.6c0.4-1.4-0.3-2-0.4-2c-0.2-0.2-0.3-0.5-0.1-0.7
			c0.1-0.2,0.4-0.3,0.7-0.1C63.6,43.9,65,44.8,64.3,47.1C64.3,47,64.3,47,64.3,47.1z"/>
	</g>
	<g>
		<path d="M66.4,74.6c-0.1,0.2-0.3,0.3-0.6,0.2c-0.3-0.1-0.4-0.3-0.4-0.6c1.6-6.6,1.5-9.8,1.4-13.8c0-0.7,0-1.4-0.1-2.2
			c-0.1-4.9-3-7.5-3-7.5c-0.2-0.2-0.2-0.5-0.1-0.7c0.2-0.2,0.5-0.2,0.7-0.1c0.1,0.1,3.3,2.9,3.4,8.3c0,0.8,0,1.5,0,2.2
			c0.1,4.1,0.2,7.3-1.5,14C66.5,74.6,66.4,74.6,66.4,74.6z"/>
	</g>
	<g>
		<path d="M65,80.1c-0.1,0.2-0.3,0.3-0.5,0.3c-0.3,0-0.5-0.3-0.4-0.6c0-0.2,0.6-2.7,0.6-3c0.1-0.3,0.3-0.4,0.6-0.4
			c0.3,0.1,0.4,0.3,0.4,0.6c-0.2,1.1-0.6,2.8-0.6,3C65.1,80,65,80.1,65,80.1z"/>
	</g>
	<g>
		<path d="M68,76.4c-0.1,0.2-0.4,0.3-0.6,0.2c-0.3-0.1-0.4-0.4-0.3-0.6c2.2-6.5,1.9-12,1.6-17.9l-0.1-1.3c-0.3-5.9-4.3-7.6-4.3-7.7
			c-0.3-0.1-0.4-0.4-0.3-0.6c0.1-0.2,0.4-0.4,0.6-0.3c0.2,0.1,4.6,2,4.9,8.5l0.1,1.3C70,64,70.3,69.7,68,76.4
			C68,76.4,68,76.4,68,76.4z"/>
	</g>
	<g>
		<path d="M72.3,76.9C72.3,76.9,72.3,77,72.3,76.9l-3,4.3c-0.1,0.2-0.3,0.2-0.5,0.2c-0.8-0.1-2.2-0.6-2.2-0.6
			c-0.1-0.1-0.2-0.2-0.3-0.3c0-0.1,0-0.3,0.1-0.4l0.7-1c0.1-0.2,0.5-0.3,0.7-0.2c0.2,0.1,0.3,0.5,0.2,0.7L67.5,80
			c0.3,0.1,0.8,0.3,1.2,0.3l2.5-3.6l-0.8-0.7l-1.4,1.8c-0.2,0.2-0.5,0.3-0.7,0.1c-0.2-0.2-0.2-0.5-0.1-0.7l1.7-2.2
			c0.1-0.1,0.2-0.2,0.3-0.2c0.1,0,0.3,0,0.4,0.1l1.6,1.3C72.4,76.5,72.4,76.7,72.3,76.9z"/>
	</g>
	<g>
		<path d="M74.1,79.3c0,0-0.1,0.1-0.1,0.1l-1.5,1.4c-0.1,0.1-0.2,0.1-0.4,0.1c-0.1,0-0.3-0.1-0.4-0.2c-0.4-0.5-1.1-1.2-1.6-1.3
			c-0.3-0.1-0.4-0.3-0.4-0.6s0.3-0.4,0.6-0.4c0.7,0.1,1.4,0.8,1.8,1.3L73,79c-0.4-0.4-1.2-0.9-1.8-1.1c-0.3-0.1-0.4-0.4-0.3-0.7
			c0.1-0.3,0.4-0.4,0.7-0.3c0.3,0.2,2,0.9,2.5,1.9C74.1,79,74.1,79.1,74.1,79.3z"/>
	</g>
	<g>
		<path d="M67.2,82.9c-0.1,0.2-0.2,0.3-0.4,0.3c-0.2,0-0.4-0.1-0.5-0.4c-0.1-0.4-0.2-0.4-0.2-0.4c-0.2,0-0.9,0.7-1.3,1.5
			c-0.1,0.1-0.2,0.2-0.4,0.2c-0.2,0-0.3,0-0.4-0.1l-1.7-1.6c-0.2-0.1-0.2-0.4-0.1-0.6c1-2.4,3.7-2.7,4.9-2.5c0.3,0,0.5,0.3,0.4,0.6
			c0,0.1,0,0.1-0.1,0.2c0.2,0.1,0.4,0.3,0.3,0.6l-0.6,2.2C67.2,82.8,67.2,82.9,67.2,82.9z M64.3,82.8c0.4-0.6,1.2-1.5,2-1.4
			c0.1,0,0.2,0.1,0.3,0.1l0.3-1.1c0,0,0-0.1,0.1-0.1c-0.5,0-2.6-0.1-3.6,1.6L64.3,82.8z"/>
	</g>
	<g>
		<path d="M67.8,84.3c0,0.1-0.1,0.1-0.1,0.2l-1.4,1c-0.1,0.1-0.3,0.1-0.4,0.1c-0.1,0-0.3-0.1-0.3-0.3L64.5,83
			c-0.1-0.2,0-0.5,0.2-0.7c0.2-0.1,0.5,0,0.7,0.2l0.8,1.7l0.6-0.4l-0.4-1c-0.1-0.3,0-0.5,0.3-0.6c0.3-0.1,0.5,0,0.6,0.3l0.6,1.4
			C67.9,84,67.8,84.2,67.8,84.3z"/>
	</g>
</g>
</svg>
