<?xml version="1.0" encoding="utf-8"?>
<!-- Generator: Adobe Illustrator 24.1.3, SVG Export Plug-In . SVG Version: 6.00 Build 0)  -->
<svg version="1.1" id="Layer_1" xmlns="http://www.w3.org/2000/svg" xmlns:xlink="http://www.w3.org/1999/xlink" x="0px" y="0px"
	 viewBox="0 0 100 100" style="enable-background:new 0 0 100 100;" xml:space="preserve">
<g>
	<g>
		<path d="M26.3,22.4c0,0,0-0.1,0-0.1c0-2.4,1-4.7,2.7-6.4c1.7-1.7,4-2.6,6.5-2.6l17.4,0c5,0,9.2,4,9.2,9c0,0.3-0.2,0.5-0.5,0.5
			c-0.3,0-0.5-0.2-0.5-0.5c0-4.4-3.7-8-8.2-8l-17.4,0c-2.2,0-4.3,0.8-5.8,2.4c-1.5,1.5-2.4,3.5-2.4,5.7c0,0.3-0.2,0.5-0.5,0.5
			C26.5,22.8,26.3,22.6,26.3,22.4z"/>
	</g>
	<g>
		<path d="M41.5,13.8c0,0,0-0.1,0-0.1c0-0.5,0.2-1,0.5-1.3c0.3-0.4,0.8-0.5,1.3-0.5l1.5,0c1,0,1.8,0.8,1.8,1.8
			c0,0.3-0.2,0.5-0.5,0.5c-0.3,0-0.5-0.2-0.5-0.5c0-0.5-0.4-0.9-0.9-0.9l-1.5,0c-0.2,0-0.5,0.1-0.6,0.3c-0.2,0.2-0.3,0.4-0.3,0.6
			c0,0.3-0.2,0.5-0.5,0.5C41.8,14.1,41.6,14,41.5,13.8z"/>
	</g>
	<g>
		<path d="M39.9,9.4c-0.1-0.3-0.1-0.6-0.1-0.9c0-1.2,0.4-2.2,1.3-3c0.8-0.8,1.9-1.3,3-1.3c2,0,3.8,1.4,4.2,3.4
			c0.1,0.3,0.1,0.6,0.1,0.9c0,2.4-1.9,4.3-4.3,4.3C42.1,12.8,40.3,11.4,39.9,9.4z M47.4,7.8c-0.3-1.5-1.7-2.6-3.3-2.6
			c-0.9,0-1.7,0.3-2.4,1c-0.6,0.6-1,1.5-1,2.4c0,0.2,0,0.5,0.1,0.7c0.3,1.5,1.7,2.6,3.3,2.6c1.8,0,3.3-1.5,3.3-3.3
			C47.5,8.3,47.4,8,47.4,7.8z"/>
	</g>
	<g>
		<path d="M25,24.5C25,24.5,25,24.5,25,24.5l0-2.2c0-0.1,0.1-0.3,0.2-0.4c0.1-0.1,0.3-0.1,0.4-0.1c0.1,0,5.2,0.9,18.6,0.9
			c13.4,0,18.5-0.9,18.6-0.9c0.1,0,0.3,0,0.4,0.1c0.1,0.1,0.2,0.2,0.2,0.4l0,2.2c0,0.3-0.2,0.5-0.5,0.5c-0.1,0-10.1,0.7-18.7,0.7
			c-8.7,0-18.6-0.7-18.7-0.7C25.2,24.9,25,24.7,25,24.5z M25.9,22.9l0,1.1c2,0.1,10.6,0.6,18.2,0.6c7.6,0,16.2-0.5,18.2-0.7l0-1.1
			c-1.7,0.2-7.1,0.9-18.2,0.9C33,23.7,27.6,23.1,25.9,22.9z"/>
	</g>
	<g>
		<path d="M21.5,28.9c0-0.1,0-0.2,0-0.3c1.7-3.9,5.7-4.5,5.8-4.6c0.3,0,0.5,0.1,0.6,0.4c0,0.3-0.1,0.5-0.4,0.6c0,0-3.1,0.5-4.7,3.3
			c1.4,0,3.6,0.2,4.1,1.3c0.1,0.2,0.4,0.8,0.4,2.3c0.1,0,0.2,0.1,0.3,0.1c0,0,0,0,0,0c1.3,0.2,5.4,0.7,16.5,0.7
			c15,0,17.2-0.5,17.2-0.5c0.1,0,0.3,0,0.4,0.1c0.1,0.1,0.2,0.2,0.2,0.4l0,5.9l0,0c0,0.1,0,0.2-0.1,0.3c-0.2,0.3-0.8,1.4-17.8,1.4
			c-8.4,0-18.4-0.2-19.1-1.1C25,39.2,25,39.1,25,39l0-6.8c0-0.1,0.1-0.3,0.1-0.3c0.1-0.1,0.2-0.1,0.4-0.1c0,0,0.3,0,0.8,0.1
			c-0.1-1.3-0.3-1.7-0.3-1.7c0,0,0-0.1-0.1-0.1c-0.2-0.5-2.2-0.8-4-0.7c-0.2,0-0.3-0.1-0.4-0.2C21.5,29.1,21.5,29,21.5,28.9z
			 M25.9,32.8l0,5.9c0.8,0.2,4.2,0.8,18.2,0.7c13.5,0,16.3-0.7,16.9-0.9l0-5.1c-1.3,0.1-5.4,0.4-16.9,0.4c-13.6,0-16.8-0.7-17.4-0.9
			C26.4,32.8,26.1,32.8,25.9,32.8z"/>
	</g>
	<g>
		<path d="M60.3,33c0,0,0-0.1,0-0.1c0.3-5.1,0.8-8.3,1.4-8.7c0.2-0.2,0.5-0.1,0.7,0.1c0.1,0.2,0.1,0.5,0,0.6
			c-0.1,0.1-0.7,1.3-1.1,8.1c0,0.3-0.2,0.5-0.5,0.5C60.5,33.4,60.3,33.2,60.3,33z"/>
	</g>
	<g>
		<path d="M26.6,86.2c-0.2-1.2-0.3-2.4-0.3-2.8l0-44.1c0-0.3,0.2-0.5,0.5-0.5s0.5,0.2,0.5,0.5l0,44.1c0,1.6,0.4,4.1,1.2,4.4
			c0.2,0.1,0.4,0.4,0.3,0.6c-0.1,0.3-0.4,0.4-0.6,0.3C27.3,88.5,26.9,87.4,26.6,86.2z"/>
	</g>
	<g>
		<path d="M58.1,88.4c0-0.2,0.1-0.5,0.3-0.6c0.8-0.3,1.2-2.8,1.2-4.4l0-44.2c0-0.3,0.2-0.5,0.5-0.5s0.5,0.2,0.5,0.5l0,44.2
			c0,0.8-0.1,4.7-1.8,5.3C58.4,88.8,58.2,88.7,58.1,88.4C58.1,88.4,58.1,88.4,58.1,88.4z"/>
	</g>
	<g>
		<path d="M61,38.2c0,0,0-0.1,0-0.1c0-0.3,0.2-0.5,0.5-0.5l4.9,0c0.2-0.2,0.6-0.8,0.6-1.8c0-1-0.4-1.6-0.6-1.8l-4.9,0
			c-0.3,0-0.5-0.2-0.5-0.5c0-0.3,0.2-0.5,0.5-0.5l5,0c0.1,0,0.2,0,0.3,0.1c0,0,1.1,0.8,1.1,2.7c0,1.8-1.1,2.6-1.1,2.7
			c-0.1,0.1-0.2,0.1-0.3,0.1l-5,0C61.3,38.6,61.1,38.4,61,38.2z"/>
	</g>
	<g>
		<path d="M63.9,78.5C63.9,78.5,63.9,78.5,63.9,78.5c0-0.4,0.2-0.6,0.5-0.6c8.7,0,12.3-3.1,15.5-8.5c3.1-5.2,3.7-17.7-0.5-27.3
			c-3.9-8.9-12.2-7.9-12.5-7.9c-0.3,0-0.5-0.1-0.5-0.4c0-0.3,0.1-0.5,0.4-0.5c0.1,0,9.3-1.2,13.6,8.4c3.5,7.9,4.5,21.4,0.5,28.2
			c-3.3,5.5-7.2,9-16.3,9C64.2,78.9,64,78.8,63.9,78.5z"/>
	</g>
	<g>
		<path d="M63.9,73.4c0,0,0-0.1,0-0.1c0-0.3,0.3-0.5,0.5-0.4c0.4,0,9.9,0.8,12.1-8.5c2.3-9.7-0.9-19.4-2.4-21.5l-0.4-0.5
			c-1.4-1.9-2.5-3.4-7-4c-0.3,0-0.4-0.3-0.4-0.5c0-0.3,0.3-0.5,0.5-0.4c4.9,0.7,6.2,2.4,7.6,4.4l0.4,0.5c1.7,2.3,5,12.2,2.6,22.3
			c-2.4,10.1-13.1,9.2-13.2,9.2C64.1,73.8,64,73.6,63.9,73.4z"/>
	</g>
	<g>
		<path d="M59.5,79.5C59.5,79.4,59.5,79.4,59.5,79.5c0-0.4,0.2-0.6,0.5-0.6l2.2,0c1,0,1.7-0.8,1.7-1.7l0-2.7c0-1-0.8-1.7-1.7-1.7
			l-2.2,0c-0.3,0-0.5-0.2-0.5-0.5c0-0.3,0.2-0.5,0.5-0.5l2.2,0c1.5,0,2.7,1.2,2.7,2.7l0,2.7c0,1.5-1.2,2.7-2.7,2.7l-2.2,0
			C59.8,79.8,59.6,79.7,59.5,79.5z"/>
	</g>
	<g>
		<path d="M30.5,89.5c0-0.1,0-0.1,0-0.2c0.1-0.3,0.3-0.4,0.6-0.4c0,0,4.6,1.1,11.9,1.1c7.4,0,12.5-1.4,12.6-1.4
			c0.3-0.1,0.5,0.1,0.6,0.3c0.1,0.3-0.1,0.5-0.3,0.6c-0.1,0-5.1,1.4-12.3,1.5c0,0-0.1,0-0.1,0h0c0,0,0,0-0.1,0h-0.7c0,0,0,0,0,0l0,0
			c0,0,0,0-0.1,0c-7.2-0.1-11.6-1.1-11.7-1.2C30.7,89.8,30.6,89.6,30.5,89.5z"/>
	</g>
	<g>
		<path d="M29.6,92.9c-0.2-1.1,0.2-3,1.1-4.6c1.2-2.1,1-3.9,1-3.9l0-41.3l-1-3.3c-0.1-0.3,0.1-0.5,0.3-0.6c0.3-0.1,0.5,0.1,0.6,0.3
			l1.1,3.3c0,0,0,0.1,0,0.1l0,41.3c0,0,0.2,2.1-1.1,4.4c-1.2,2.1-1.1,4-0.9,4.2c0.2,0,0.9-0.5,1.4-0.9c1.4-1,3.4-2.4,5.5-2.3
			c0.3,0,0.5,0.2,0.5,0.5c0,0.3-0.2,0.5-0.5,0.5c-1.8-0.1-3.6,1.2-4.9,2.1c-0.9,0.6-1.5,1.1-2,1.1c-0.4,0-0.7-0.2-0.9-0.5
			C29.7,93.3,29.6,93.1,29.6,92.9z"/>
	</g>
	<g>
		<path d="M26.3,92.5c-0.1-0.6-0.1-1.5,1-2.7c1.2-1.4,1.3-5.5,1.3-7l0-39.9c0,0,0-0.1,0-0.1l0.6-3.3c0-0.3,0.3-0.4,0.6-0.4
			c0.3,0.1,0.4,0.3,0.4,0.6l-0.6,3.2l0,39.9c0,0.2,0.2,5.6-1.5,7.7c-0.7,0.8-0.9,1.5-0.7,2c0.2,0.4,0.6,0.6,1.1,0.7
			c1.4,0.1,2-0.1,2-0.1c0.2-0.1,0.5,0,0.6,0.2c0.1,0.2,0,0.5-0.2,0.6c-0.1,0-0.8,0.4-2.5,0.2c-0.9-0.1-1.6-0.6-1.9-1.3
			C26.3,92.8,26.3,92.7,26.3,92.5z"/>
	</g>
	<g>
		<path d="M29.5,92c0-0.2,0-0.3,0.1-0.4c0.1-0.1,1.8-1.8,4.6-2.1c0.3,0,0.5,0.2,0.5,0.4c0,0.3-0.2,0.5-0.4,0.5
			c-2.5,0.3-4,1.8-4.1,1.8c-0.2,0.2-0.5,0.2-0.7,0C29.6,92.1,29.5,92.1,29.5,92z"/>
	</g>
	<g>
		<path d="M48.5,90.4C48.5,90.4,48.5,90.3,48.5,90.4c0-0.3,0.2-0.6,0.4-0.6c2.1-0.1,4.1,1.3,5.5,2.3c0.5,0.4,1.2,0.9,1.4,0.9
			c0.3-0.2,0.3-2.1-0.9-4.2c-1.3-2.3-1.1-4.4-1.1-4.5l0-41.3c0,0,0-0.1,0-0.1l1.1-3.3c0.1-0.3,0.4-0.4,0.6-0.3
			c0.3,0.1,0.4,0.4,0.3,0.6l-1,3.3l0,41.3c0,0.1-0.2,1.9,1,4c1.1,1.9,1.5,4.2,0.9,5.1c-0.2,0.3-0.5,0.5-0.9,0.5
			c-0.5,0-1.1-0.4-2-1.1c-1.3-0.9-3.1-2.2-4.9-2.1C48.8,90.8,48.6,90.6,48.5,90.4z"/>
	</g>
	<g>
		<path d="M55.4,93.6c0-0.1,0-0.2,0-0.3c0.1-0.2,0.4-0.3,0.6-0.2l0,0c0,0,0.6,0.3,2,0.1c0.6-0.1,1-0.3,1.1-0.7c0.2-0.5,0-1.3-0.7-2
			c-1.7-2-1.5-7.4-1.5-7.7l0-39.9l-0.6-3.2c0-0.3,0.1-0.5,0.4-0.6c0.3-0.1,0.5,0.1,0.6,0.4l0.6,3.3c0,0,0,0.1,0,0.1l0,39.9
			c-0.1,1.5,0,5.6,1.3,7c1.2,1.4,1.1,2.5,0.9,3c-0.3,0.7-1,1.2-1.9,1.3c-1.7,0.2-2.4-0.2-2.5-0.2C55.5,93.8,55.4,93.7,55.4,93.6z"/>
	</g>
	<g>
		<path d="M52.6,89.7c0-0.1,0-0.2,0-0.3c0.1-0.3,0.4-0.4,0.6-0.3c0.1,0,2.8,1,3.8,2.4c0.1,0.2,0.1,0.5-0.1,0.7
			c-0.2,0.1-0.5,0.1-0.7-0.1c-0.6-1-2.6-1.8-3.3-2C52.7,90,52.6,89.9,52.6,89.7z"/>
	</g>
	<g>
		<path d="M41.4,78.1C41.4,78,41.4,78,41.4,78.1l0-5.2c0-0.2,0.1-0.3,0.3-0.4l0.7-0.4l0-32.2c0-0.3,0.2-0.5,0.5-0.5
			c0.3,0,0.5,0.2,0.5,0.5l0,32.5c0,0.2-0.1,0.3-0.3,0.4l-0.7,0.3l0,4.4c0.5,0.1,1.3,0.2,2.4,0l0-4.4L44,72.8
			c-0.2-0.1-0.3-0.2-0.3-0.4l0-32.5c0-0.3,0.2-0.5,0.5-0.5s0.5,0.2,0.5,0.5l0,32.2l0.7,0.3c0.2,0.1,0.3,0.2,0.3,0.4l0,5.1
			c0,0.2-0.2,0.4-0.4,0.5c-1.9,0.5-3.5,0-3.6,0C41.6,78.4,41.5,78.2,41.4,78.1z"/>
	</g>
	<g>
		<path d="M31.7,80.8c0-0.1,0-0.1,0-0.2c0.1-0.3,0.3-0.4,0.6-0.4c0,0,3.2,0.7,11.1,0.8c7.8,0,10.8-0.8,10.9-0.8
			c0.3-0.1,0.5,0.1,0.6,0.4c0.1,0.3-0.1,0.5-0.4,0.6c-0.1,0-3.2,0.7-10.8,0.8c0,0,0,0,0,0l0,0l-0.4,0c-0.1,0-0.2,0-0.2,0
			c0,0,0,0,0,0c-7.7,0-10.7-0.7-10.8-0.8C31.8,81.2,31.7,81,31.7,80.8z"/>
	</g>
	<g>
		<path d="M31.6,76.4c-0.1-0.2,0.1-0.5,0.3-0.6c0.2,0,3.8-1.2,9.9-1.2c0.3,0,0.5,0.2,0.5,0.5c0,0.3-0.2,0.5-0.5,0.5
			c-6,0-9.6,1.1-9.7,1.1C32,76.9,31.7,76.7,31.6,76.4C31.6,76.5,31.6,76.5,31.6,76.4z"/>
	</g>
	<g>
		<path d="M44.8,75.3c0,0,0-0.1,0-0.1c0-0.3,0.2-0.5,0.5-0.5c5.7,0.1,9.1,1.1,9.2,1.2c0.3,0.1,0.4,0.4,0.3,0.6
			c-0.1,0.3-0.4,0.4-0.6,0.3c0,0-3.4-1-9-1.1C45,75.7,44.8,75.5,44.8,75.3z"/>
	</g>
</g>
</svg>
