<?xml version="1.0" encoding="utf-8"?>
<!-- Generator: Adobe Illustrator 24.1.3, SVG Export Plug-In . SVG Version: 6.00 Build 0)  -->
<svg version="1.1" id="Layer_1" xmlns="http://www.w3.org/2000/svg" xmlns:xlink="http://www.w3.org/1999/xlink" x="0px" y="0px"
	 viewBox="0 0 100 93" style="enable-background:new 0 0 100 93;" xml:space="preserve">
<g>
	<g>
		<path d="M81.3,16.3c0.1,0.1,0.2,0.2,0.2,0.4c0,0.1,0.6,3.7-4,10l0,0c0,0-2.8,4.6-3.6,6.9c-0.7,2-2.6,5-3.5,6.5
			c-0.2,0.4-0.4,0.6-0.5,0.8c-0.1,0.1-0.1,0.2-0.2,0.4c-0.6,1-2,3.4-2.5,5.3c-0.6,2.4-3.8,6.5-4,6.7l0,0c0,0-1.9,3.1-2.4,4.6
			c-0.5,1.6-1.6,3.8-2.4,5.2c-0.4,0.7-0.6,1.2-0.4,1.7c0.2,0.6,0.9,1.2,2.2,1.7c0.3,0.1,0.4,0.5,0.3,0.8c-0.1,0.3-0.5,0.4-0.8,0.3
			c-1.6-0.7-2.5-1.5-2.8-2.5c-0.3-1,0.1-2,0.6-2.7c0.8-1.3,1.8-3.4,2.3-4.9c0.5-1.6,2.5-4.8,2.5-5c0.1-0.1,3.2-4.2,3.8-6.3
			c0.6-2,2-4.5,2.7-5.6c0.1-0.2,0.2-0.3,0.2-0.4c0.1-0.1,0.3-0.4,0.5-0.8c0.9-1.4,2.8-4.4,3.4-6.3c0.8-2.4,3.6-7,3.7-7.2
			c3.3-4.6,3.8-7.5,3.9-8.7l-74.1,0c0,1.1,0.5,4.1,3.8,8.6c0.1,0.2,2.9,4.8,3.7,7.3c0.6,1.9,2.5,4.8,3.4,6.3
			c0.2,0.4,0.4,0.7,0.5,0.8c0,0.1,0.1,0.2,0.2,0.4c0.6,1.1,2.1,3.6,2.6,5.6c0.6,2.1,3.7,6.2,3.8,6.3c0.1,0.2,2.1,3.4,2.6,5
			c0.5,1.5,1.5,3.6,2.3,4.9c0.4,0.7,0.9,1.6,0.6,2.7c-0.3,1-1.2,1.8-2.8,2.5c-0.3,0.1-0.7,0-0.8-0.3c-0.1-0.3,0-0.7,0.3-0.8
			c1.2-0.5,2-1.1,2.2-1.7c0.1-0.4,0-0.9-0.4-1.7c-0.8-1.3-1.9-3.6-2.4-5.2c-0.5-1.5-2.4-4.6-2.4-4.7c-0.1-0.1-3.3-4.3-3.9-6.6
			c-0.5-1.9-1.9-4.3-2.5-5.3c-0.1-0.2-0.2-0.3-0.2-0.4c-0.1-0.1-0.2-0.4-0.5-0.7c-0.9-1.5-2.8-4.5-3.5-6.5c-0.8-2.3-3.6-6.9-3.6-7
			c-4.6-6.3-4-9.9-4-10c0.1-0.3,0.3-0.5,0.6-0.5l75.3,0C81.1,16.2,81.2,16.3,81.3,16.3z"/>
	</g>
	<g>
		<path d="M76.4,69.4c0.8,0.7,1.3,1.4,1.3,2.3c0,5.2-17.8,7.9-34.6,7.9c-16.8,0-34.6-2.8-34.6-7.9c0-4.9,15.7-6.8,20.5-7.3
			c0.3,0,0.6,0.2,0.7,0.5c0,0.3-0.2,0.6-0.5,0.7c-13.3,1.3-19.4,4.1-19.4,6.1c0,3.2,13.7,6.7,33.4,6.7c19.7,0,33.4-3.5,33.4-6.7
			c0-2-6-4.7-19-6.1c-0.3,0-0.6-0.3-0.5-0.7c0-0.3,0.3-0.6,0.7-0.5C61.4,64.8,72.6,66.2,76.4,69.4z"/>
	</g>
	<g>
		<path d="M62.9,77.2c0.1,0.1,0.2,0.3,0.2,0.5l0,1.7c0,3.5-13.1,4.4-20.1,4.4c-6.9,0-20.1-0.9-20.1-4.4l0-1.7c0-0.3,0.3-0.6,0.6-0.6
			c0.3,0,0.6,0.3,0.6,0.6l0,1.7c0,1.1,6.5,3.2,18.9,3.2c12.4,0,18.9-2.1,18.9-3.2v-1.7c0-0.3,0.3-0.6,0.6-0.6
			C62.7,77.1,62.8,77.2,62.9,77.2z"/>
	</g>
	<g>
		<path d="M91.8,23.2c0.7,0.6,1.4,1.4,1.8,2.3c3.3,6.7,0.5,13.1-7.6,17.6C77.4,47.9,64.8,51,64.7,51c-0.3,0.1-0.6-0.1-0.7-0.4
			s0.1-0.7,0.4-0.7c0.1,0,12.5-3.1,21.1-7.8c7.5-4.2,10.1-9.8,7-16c-2.5-5.2-12.4-4.3-12.5-4.3c-0.3,0-0.6-0.2-0.7-0.5
			c0-0.3,0.2-0.6,0.5-0.7C80.3,20.5,87.8,19.8,91.8,23.2z"/>
	</g>
	<g>
		<path d="M89.4,26.3c0.5,0.4,0.9,0.9,1.1,1.4c1.2,2.4,0,6.9-4,10.3C81,42.5,67.6,46.2,67,46.3c-0.3,0.1-0.6-0.1-0.7-0.4
			c-0.1-0.3,0.1-0.6,0.4-0.7c0.1,0,13.8-3.8,19-8.2c3.5-3,4.6-6.9,3.7-8.8c-1-2-5.8-3.8-11.6-2.2c-0.3,0.1-0.7-0.1-0.7-0.4
			c-0.1-0.3,0.1-0.7,0.4-0.7C82.4,23.4,87.1,24.4,89.4,26.3z"/>
	</g>
</g>
</svg>
